HIERARCHY
ROOT Hips
{
	OFFSET	0.00	0.00	0.00
	CHANNELS 6 Xposition Yposition Zposition Zrotation Xrotation Yrotation
	JOINT LeftUpLeg
	{
		OFFSET	 0.126116	-0.014019	-0.065224
		CHANNELS 3 Zrotation Xrotation Yrotation
		JOINT LeftLeg
		{
			OFFSET	 0.000000	 0.000000	 0.569914
			CHANNELS 3 Zrotation Xrotation Yrotation
			JOINT LeftFoot
			{
				OFFSET	 0.000000	 0.000000	 0.544423
				CHANNELS 3 Zrotation Xrotation Yrotation
				JOINT LeftToeBase
				{
					OFFSET	 0.000000	 0.000000	 0.207117
					CHANNELS 3 Zrotation Xrotation Yrotation
					End Site
					{
						OFFSET	 0.000000	 0.000000	 0.207117
					}
				}
			}
		}
	}
	JOINT RightUpLeg
	{
		OFFSET	-0.124023	-0.008373	-0.065224
		CHANNELS 3 Zrotation Xrotation Yrotation
		JOINT RightLeg
		{
			OFFSET	 0.000000	 0.000000	 0.570047
			CHANNELS 3 Zrotation Xrotation Yrotation
			JOINT RightFoot
			{
				OFFSET	 0.000000	 0.000000	 0.544354
				CHANNELS 3 Zrotation Xrotation Yrotation
				JOINT RightToeBase
				{
					OFFSET	 0.000000	 0.000000	 0.207540
					CHANNELS 3 Zrotation Xrotation Yrotation
					End Site
					{
						OFFSET	 0.000000	 0.000000	 0.207540
					}
				}
			}
		}
	}
	JOINT Spine
	{
		OFFSET	 0.000184	-0.007763	 0.117403
		CHANNELS 3 Zrotation Xrotation Yrotation
		JOINT Spine1
		{
			OFFSET	 0.000000	 0.000000	 0.137269
			CHANNELS 3 Zrotation Xrotation Yrotation
			JOINT Spine2
			{
				OFFSET	 0.000000	 0.000000	 0.156879
				CHANNELS 3 Zrotation Xrotation Yrotation
				JOINT LeftShoulder
				{
					OFFSET	 0.080501	-0.002496	 0.160144
					CHANNELS 3 Zrotation Xrotation Yrotation
					JOINT LeftArm
					{
						OFFSET	 0.000000	 0.000000	 0.164363
						CHANNELS 3 Zrotation Xrotation Yrotation
						JOINT LeftForeArm
						{
							OFFSET	 0.000000	 0.000000	 0.364576
							CHANNELS 3 Zrotation Xrotation Yrotation
							JOINT LeftHand
							{
								OFFSET	 0.000000	 0.000000	 0.360812
								CHANNELS 3 Zrotation Xrotation Yrotation
								JOINT LeftHandIndex1
								{
									OFFSET	 0.000000	 0.000000	 0.086006
									CHANNELS 3 Zrotation Xrotation Yrotation
									JOINT LeftHandIndex2
									{
										OFFSET	 0.000000	 0.000000	 0.047236
										CHANNELS 3 Zrotation Xrotation Yrotation
										JOINT LeftHandIndex3
										{
											OFFSET	-0.004284	-0.000551	 0.038166
											CHANNELS 3 Zrotation Xrotation Yrotation
											End Site
											{
												OFFSET	-0.004284	-0.000551	 0.038166
											}
										}
									}
								}
							}
						}
					}
				}
				JOINT Neck
				{
					OFFSET	 0.000000	 0.000000	 0.176489
					CHANNELS 3 Zrotation Xrotation Yrotation
					JOINT Head
					{
						OFFSET	 0.000000	-0.001747	 0.077940
						CHANNELS 3 Zrotation Xrotation Yrotation
						End Site
						{
							OFFSET	 0.000000	-0.001747	 0.077940
						}
					}
				}
				JOINT RightShoulder
				{
					OFFSET	-0.080363	 0.000306	 0.159706
					CHANNELS 3 Zrotation Xrotation Yrotation
					JOINT RightArm
					{
						OFFSET	 0.000000	 0.000000	 0.164196
						CHANNELS 3 Zrotation Xrotation Yrotation
						JOINT RightForeArm
						{
							OFFSET	 0.000000	 0.000000	 0.365611
							CHANNELS 3 Zrotation Xrotation Yrotation
							JOINT RightHand
							{
								OFFSET	 0.000000	 0.000000	 0.360648
								CHANNELS 3 Zrotation Xrotation Yrotation
								JOINT RightHandIndex1
								{
									OFFSET	 0.000000	 0.000000	 0.069977
									CHANNELS 3 Zrotation Xrotation Yrotation
									JOINT RightHandIndex2
									{
										OFFSET	 0.000000	 0.000000	 0.052305
										CHANNELS 3 Zrotation Xrotation Yrotation
										JOINT RightHandIndex3
										{
											OFFSET	 0.009002	-0.000782	 0.042196
											CHANNELS 3 Zrotation Xrotation Yrotation
											End Site
											{
												OFFSET	 0.009002	-0.000782	 0.042196
											}
										}
									}
								}
							}
						}
					}
				}
			}
		}
	}
}
MOTION
Frames:    12
Frame Time: 0.03333334
 0.000149	 0.041372	 1.275543	-0.106098	 2.043635	 0.449733	-4.891342	-5.116066	 179.171100	 2.377475	-13.344610	 0.645364	 0.155705	 71.605160	-0.458349	-2.385833	 28.452750	 0.000004	 12.541340	-4.788355	-179.325900	-0.802593	-12.055690	 0.908903	 5.206730	 70.619020	 1.157705	 2.384659	 28.388700	-0.000001	-6.140780	 6.052154	 1.283501	-3.015941	-2.397969	-0.141882	 9.436817	 4.845455	-0.458384	-91.278490	 70.560520	-178.091000	-8.124740	 2.526880	-0.376739	 24.338520	-8.073399	-29.707560	-10.454170	-20.936400	-4.160559	-2.027600	 6.559038	 9.033609	-5.188889	 0.308190	 3.541030	-5.234859	 0.342567	 0.430617	 4.151393	 15.766990	-6.056115	 4.480240	-12.126980	 2.146214	 89.163280	 69.744970	 177.683900	 9.670708	 7.860872	 10.034480	-27.720070	-4.482309	 12.074860	 8.078531	-21.400180	 6.868082	 1.803333	 3.979147	-15.098590	 4.898592	 3.004813	-9.310344	 5.224449	 0.395017	 2.014677
-0.000313	 0.043818	 1.277499	-0.062230	 2.922738	 0.443167	-5.078918	-5.366248	 179.060500	 2.173919	-11.674330	 0.524516	-0.022177	 70.506540	-0.068167	-2.385833	 28.452750	 0.000004	 12.585150	-4.893622	-179.027800	-0.796910	-10.143410	 0.767406	 5.032955	 69.497530	 1.295662	 2.384659	 28.388700	-0.000001	-6.193959	 6.625720	 1.465050	-3.121972	-4.715906	-0.438180	 9.604650	 7.442441	-0.713487	-91.056570	 69.028370	-177.572500	-7.310814	 1.318541	-1.589990	 23.684550	-8.007267	-30.756890	-8.194650	-22.466180	-4.540128	-2.027600	 6.559038	 9.033609	-5.188889	 0.308190	 3.541030	-5.234859	 0.342567	 0.430617	 4.609348	 19.770980	-7.318230	 4.853793	-15.227640	 2.231757	 88.860540	 67.639040	 177.060900	 8.446201	 5.786325	 11.436990	-27.834070	-4.992650	 13.319890	 5.532988	-22.153480	 6.123404	 1.803333	 3.979147	-15.098590	 4.898592	 3.004813	-9.310344	 5.224449	 0.395017	 2.014677
-0.001019	 0.047599	 1.278959	 0.033049	 4.118636	 0.486803	-5.409970	-6.195250	 178.822000	 2.095371	-10.361000	 0.460788	-0.514923	 69.668880	 0.483950	-2.385833	 28.452750	 0.000004	 12.553730	-5.383571	-178.705500	-0.812131	-8.189488	 0.618547	 4.930319	 68.248110	 1.375691	 2.384659	 28.388700	-0.000001	-5.937132	 7.193231	 1.606414	-3.150041	-7.324702	-0.826514	 9.357878	 10.002280	-0.894580	-90.883430	 67.835910	-177.227900	-6.570284	 1.173233	-2.315708	 22.841950	-7.951327	-32.324010	-6.495535	-24.493600	-5.317352	-2.027600	 6.559038	 9.033609	-5.188889	 0.308190	 3.541030	-5.234859	 0.342567	 0.430617	 4.734376	 23.308200	-8.360750	 5.203195	-18.216530	 2.433882	 88.548020	 65.469430	 176.532000	 7.260148	 4.333222	 12.386430	-27.594480	-5.589951	 15.027200	 3.103312	-23.246070	 5.569282	 1.803333	 3.979147	-15.098590	 4.898592	 3.004813	-9.310344	 5.224449	 0.395017	 2.014677
-0.001661	 0.051887	 1.280100	 0.135910	 5.366498	 0.560169	-5.645007	-7.170809	 178.539800	 2.124469	-9.180812	 0.405680	-1.031842	 68.908550	 1.053098	-2.385833	 28.452760	 0.000004	 12.424350	-5.773011	-178.382300	-1.046157	-5.850697	 0.418661	 5.024632	 66.821090	 1.478496	 2.384659	 28.388700	-0.000001	-5.546741	 7.638416	 1.650730	-3.164544	-9.875468	-1.142392	 8.884175	 12.224500	-1.050344	-90.827960	 66.653920	-177.257400	-5.554931	 1.384428	-2.458967	 21.533180	-7.523480	-33.907010	-5.942548	-26.181480	-6.366457	-2.027600	 6.559038	 9.033609	-5.188889	 0.308190	 3.541030	-5.234859	 0.342567	 0.430617	 4.561304	 25.370950	-8.771091	 5.254035	-20.115650	 2.465451	 88.407590	 63.531270	 176.473000	 5.971064	 3.481305	 12.693610	-26.935220	-5.978963	 16.579060	 1.282666	-24.095800	 5.506736	 1.803333	 3.979147	-15.098590	 4.898592	 3.004813	-9.310344	 5.224449	 0.395017	 2.014677
-0.002280	 0.058448	 1.280908	 0.326131	 7.134416	 0.651381	-6.074457	-8.894636	 178.124900	 2.066442	-8.148932	 0.352172	-1.663758	 68.036780	 1.794997	-2.385832	 28.452790	-0.000001	 12.137160	-6.020091	-177.883800	-1.436320	-1.872616	 0.121400	 5.235122	 64.473630	 1.625518	 2.384659	 28.388700	-0.000001	-4.956739	 7.986810	 1.597908	-3.169936	-13.206770	-1.455294	 8.063343	 14.801530	-1.160688	-91.025930	 65.331930	-177.974800	-3.787388	 2.292370	-1.682282	 19.745600	-6.759899	-35.901580	-6.098893	-27.835350	-7.886815	-2.027600	 6.559038	 9.033609	-5.188889	 0.308190	 3.541030	-5.234859	 0.342567	 0.430617	 4.108951	 26.679940	-8.811713	 4.971689	-21.581370	 2.351565	 88.553310	 61.599470	 177.076200	 3.938623	 3.491220	 12.138750	-25.907180	-6.282437	 18.353160	-0.599653	-24.984460	 5.767919	 1.803333	 3.979147	-15.098590	 4.898592	 3.004813	-9.310344	 5.224449	 0.395017	 2.014677
-0.002540	 0.066410	 1.280442	 0.633460	 9.129102	 0.680666	-6.652971	-11.640360	 177.695400	 1.972082	-8.537209	 0.354795	-2.217690	 67.604610	 2.518976	-2.385833	 28.452760	 0.000004	 11.836700	-8.285556	-177.418500	-1.638417	-1.452344	 0.089022	 6.059919	 63.845280	 0.913434	 2.384659	 28.388700	-0.000001	-4.348273	 7.935759	 1.452463	-3.097741	-16.411720	-1.634597	 7.068319	 16.944300	-1.082001	-91.655170	 64.752620	-179.682300	-1.721643	 4.337627	 0.533398	 18.603080	-6.359005	-37.915690	-6.395963	-28.932170	-9.322062	-2.027600	 6.559038	 9.033609	-5.188889	 0.308190	 3.541030	-5.234859	 0.342567	 0.430617	 3.615214	 26.981750	-8.731952	 4.436136	-22.366330	 2.229182	 89.137680	 60.825410	 178.507100	 1.501171	 5.264163	 10.303250	-25.150180	-6.582874	 19.982380	-2.217785	-25.855320	 6.003045	 1.803333	 3.979147	-15.098590	 4.898592	 3.004813	-9.310344	 5.224449	 0.395017	 2.014677
-0.002789	 0.076389	 1.279036	 0.851462	 11.454250	 0.617687	-7.179840	-15.416800	 177.265300	 1.985757	-10.095200	 0.421323	-3.054623	 67.847690	 3.453661	-2.385832	 28.452790	-0.000001	 11.805150	-12.878650	-176.899600	-1.831310	-4.875497	 0.282059	 7.680311	 65.160290	-0.686077	 2.384659	 28.388700	-0.000001	-3.602160	 7.677668	 1.369622	-2.833947	-18.945750	-1.701381	 5.893157	 18.446080	-0.639570	-92.481540	 65.065560	 178.120000	 0.259154	 7.564944	 3.381787	 18.510250	-6.878142	-40.434860	-5.930339	-29.894500	-9.932291	-2.027600	 6.559038	 9.033609	-5.188889	 0.308190	 3.541030	-5.234859	 0.342567	 0.430617	 3.178072	 25.494550	-8.990985	 3.588896	-22.096620	 1.916703	 89.954880	 60.349930	-179.605900	-0.761924	 7.976280	 7.820773	-23.829640	-6.829306	 22.287750	-2.934138	-27.044090	 6.210266	 1.803333	 3.979147	-15.098590	 4.898592	 3.004813	-9.310344	 5.224449	 0.395017	 2.014677
-0.003715	 0.089944	 1.278018	 1.711542	 14.864870	 0.695456	-8.529649	-20.421710	 176.212600	 2.482120	-11.341810	 0.570526	-4.725188	 67.475750	 4.815464	-2.385833	 28.452760	 0.000004	 11.001840	-16.960680	-176.340500	-1.600220	-4.472795	 0.276895	 7.919283	 63.880740	-1.267400	 2.384659	 28.388700	-0.000001	-3.051763	 6.883907	 1.115619	-2.790188	-20.630540	-1.747201	 4.486042	 18.819840	-0.350290	-93.219540	 65.248450	 176.120500	 3.115075	 11.287230	 5.296494	 18.330280	-7.355606	-42.989900	-5.373245	-30.412430	-10.363320	-2.027600	 6.559038	 9.033609	-5.188889	 0.308190	 3.541030	-5.234859	 0.342567	 0.430617	 2.820950	 24.675200	-8.694989	 2.596143	-22.267030	 1.562897	 90.780770	 60.449380	-177.715500	-3.315454	 11.501110	 6.247684	-22.671470	-6.906091	 24.138530	-3.433815	-27.868070	 6.623325	 1.803333	 3.979147	-15.098590	 4.898592	 3.004813	-9.310344	 5.224449	 0.395017	 2.014677
-0.005155	 0.105272	 1.276783	 2.870819	 18.517680	 0.654027	-10.296450	-25.321460	 174.904600	 3.101887	-11.690840	 0.713802	-6.461597	 65.747380	 6.182893	-2.385833	 28.452760	 0.000004	 9.963314	-21.991920	-175.858600	-1.600366	-5.377201	 0.332719	 8.530169	 62.755350	-2.038306	 2.384659	 28.388700	-0.000001	-2.559981	 6.304907	 0.855795	-2.790910	-21.381000	-1.522228	 2.992494	 18.575480	-0.285731	-93.850430	 65.569370	 174.338200	 6.335482	 15.533210	 5.149731	 18.261380	-7.700922	-44.551720	-4.914658	-30.956030	-10.745990	-2.027600	 6.559038	 9.033609	-5.188889	 0.308190	 3.541030	-5.234859	 0.342567	 0.430617	 2.499432	 24.139180	-7.932202	 1.416424	-22.657650	 0.989584	 91.558300	 60.913190	-175.874400	-5.921602	 15.586920	 6.482884	-21.936160	-6.793618	 24.919860	-3.771040	-28.508410	 7.078935	 1.803333	 3.979147	-15.098590	 4.898592	 3.004813	-9.310344	 5.224449	 0.395017	 2.014677
-0.007212	 0.120289	 1.274377	 4.038629	 21.693200	 0.435341	-12.099460	-29.703480	 173.610000	 3.615248	-12.281280	 0.858962	-7.999676	 65.636970	 7.388816	-2.385833	 28.452750	 0.000004	 9.038192	-27.267470	-175.469600	-2.028962	-8.123249	 0.440917	 10.195470	 63.599110	-3.475330	 2.384659	 28.388700	-0.000001	-2.034193	 6.586293	 0.646075	-2.710688	-21.077000	-0.984926	 1.542778	 18.067630	-0.425850	-94.327510	 66.234760	 172.795400	 9.265936	 19.435660	 2.603145	 18.380070	-7.929222	-44.942860	-4.629894	-31.754080	-11.115190	-2.027600	 6.559038	 9.033609	-5.188889	 0.308190	 3.541030	-5.234859	 0.342567	 0.430617	 2.172466	 23.664750	-6.865262	 0.092755	-23.118830	 0.177505	 92.228490	 61.606130	-174.180700	-8.342520	 19.568240	 8.792025	-21.620680	-6.637828	 24.923680	-3.837918	-29.147200	 7.549248	 1.803333	 3.979147	-15.098590	 4.898592	 3.004813	-9.310344	 5.224449	 0.395017	 2.014677
-0.009518	 0.130919	 1.270224	 4.388062	 22.815730	 0.299992	-12.836450	-32.523530	 172.964200	 3.647484	-15.046690	 1.056703	-9.023272	 66.886700	 8.546174	-2.385833	 28.452750	 0.000004	 8.987316	-31.077560	-175.317900	-1.998788	-13.155250	 0.717024	 11.880300	 65.813140	-5.391885	 2.384659	 28.388700	-0.000001	-1.181069	 8.827292	 0.496148	-2.153664	-18.344200	-0.077838	 0.399497	 17.487630	-0.627643	-94.543460	 67.795200	 171.442400	 11.511640	 22.178800	-1.991880	 18.502720	-8.369443	-46.031180	-4.373645	-32.911450	-11.354880	-2.027600	 6.559038	 9.033609	-5.188889	 0.308190	 3.541030	-5.234859	 0.342567	 0.430617	 1.677190	 22.912120	-6.217280	-1.092225	-23.468890	-0.451082	 92.676140	 62.333650	-172.930000	-9.881570	 22.724300	 12.923450	-21.085660	-6.751104	 26.204070	-2.746677	-30.368170	 8.375622	 1.803333	 3.979147	-15.098590	 4.898592	 3.004813	-9.310344	 5.224449	 0.395017	 2.014677
-0.011385	 0.143775	 1.265617	 3.903220	 24.210740	 0.231015	-12.723750	-36.060610	 172.521900	 3.712616	-18.498390	 1.312136	-10.007220	 68.283850	 9.718413	-2.385833	 28.452750	 0.000004	 9.978493	-34.909470	-174.615600	-2.357752	-17.302460	 0.829950	 14.468050	 67.533020	-7.836184	 2.384659	 28.388700	-0.000001	-0.196002	 10.707550	 0.250950	-1.184744	-14.184310	 0.808192	-0.614564	 16.152020	-0.487992	-94.526020	 69.758630	 170.193600	 13.016430	 23.718240	-7.148520	 18.213190	-8.515525	-47.590420	-4.866636	-34.782650	-11.679400	-2.027600	 6.559038	 9.033609	-5.188889	 0.308190	 3.541030	-5.234859	 0.342567	 0.430617	 1.221928	 21.845720	-6.001460	-2.162426	-23.530310	-0.848748	 92.997020	 63.782640	-171.670700	-11.551960	 25.612540	 18.688680	-20.390580	-6.620986	 27.021930	-0.912036	-32.111310	 9.421016	 1.803333	 3.979147	-15.098590	 4.898592	 3.004813	-9.310344	 5.224449	 0.395017	 2.014677
